<?xml version="1.0" encoding="UTF-8" standalone="no"?>
<!-- Created with Inkscape (http://www.inkscape.org/) -->

<svg
   xmlns:dc="http://purl.org/dc/elements/1.1/"
   xmlns:cc="http://creativecommons.org/ns#"
   xmlns:rdf="http://www.w3.org/1999/02/22-rdf-syntax-ns#"
   xmlns:svg="http://www.w3.org/2000/svg"
   xmlns="http://www.w3.org/2000/svg"
   xmlns:xlink="http://www.w3.org/1999/xlink"
   xmlns:sodipodi="http://sodipodi.sourceforge.net/DTD/sodipodi-0.dtd"
   xmlns:inkscape="http://www.inkscape.org/namespaces/inkscape"
   width="108.58457mm"
   height="285.7319mm"
   viewBox="0 0 384.74848 1012.4359"
   id="svg2"
   version="1.1"
   inkscape:version="0.91 r13725"
   sodipodi:docname="tiger_robot.svg"
   inkscape:export-filename="/home/hackathon/Documents/MechaWahoo/game/images/Source/tiger_robotdead.png"
   inkscape:export-xdpi="90"
   inkscape:export-ydpi="90">
  <defs
     id="defs4">
    <linearGradient
       inkscape:collect="always"
       id="linearGradient4404">
      <stop
         style="stop-color:#008066;stop-opacity:1;"
         offset="0"
         id="stop4406" />
      <stop
         style="stop-color:#508066;stop-opacity:1"
         offset="1"
         id="stop4408" />
    </linearGradient>
    <inkscape:perspective
       sodipodi:type="inkscape:persp3d"
       inkscape:vp_x="0 : 526.18111 : 1"
       inkscape:vp_y="0 : 1000 : 0"
       inkscape:vp_z="744.09449 : 526.18112 : 1"
       inkscape:persp3d-origin="372.04725 : 350.78741 : 1"
       id="perspective4617" />
    <radialGradient
       inkscape:collect="always"
       xlink:href="#linearGradient4404"
       id="radialGradient4410"
       cx="415.44879"
       cy="133.49962"
       fx="415.44879"
       fy="133.49962"
       r="100.6674"
       gradientTransform="matrix(1,0,0,0.95666221,0,5.7855787)"
       gradientUnits="userSpaceOnUse" />
  </defs>
  <sodipodi:namedview
     id="base"
     pagecolor="#ffffff"
     bordercolor="#666666"
     borderopacity="1.0"
     inkscape:pageopacity="0.0"
     inkscape:pageshadow="2"
     inkscape:zoom="0.39292555"
     inkscape:cx="374.40312"
     inkscape:cy="784.47342"
     inkscape:document-units="px"
     inkscape:current-layer="layer1"
     showgrid="false"
     inkscape:window-width="1920"
     inkscape:window-height="1016"
     inkscape:window-x="0"
     inkscape:window-y="27"
     inkscape:window-maximized="1"
     showguides="true"
     fit-margin-top="0"
     fit-margin-left="0"
     fit-margin-right="0"
     fit-margin-bottom="0">
    <inkscape:grid
       type="xygrid"
       id="grid4198"
       originx="-166.49505"
       originy="-34.335339" />
  </sodipodi:namedview>
  <metadata
     id="metadata7">
    <rdf:RDF>
      <cc:Work
         rdf:about="">
        <dc:format>image/svg+xml</dc:format>
        <dc:type
           rdf:resource="http://purl.org/dc/dcmitype/StillImage" />
        <dc:title></dc:title>
      </cc:Work>
    </rdf:RDF>
  </metadata>
  <g
     inkscape:label="Body"
     inkscape:groupmode="layer"
     id="layer1"
     style="display:inline"
     transform="translate(-166.49505,-5.5909912)">
    <path
       inkscape:connector-curvature="0"
       id="path4518"
       d="m 255.69958,655.59289 15.71306,-23.71252 c 0,0 -13.26833,-4.03714 -7.45452,-15.246 5.8138,-11.20885 5.397,1.66137 37.00346,-27.46296 31.60645,-29.12431 111.29903,-132.30886 111.29903,-132.30886 0,0 16.20969,-11.50646 8.96708,4.65104 -7.24262,16.1575 -128.90601,161.86675 -130.02047,176.08203 -1.64462,4.26774 -9.54945,4.15048 -9.54945,4.15048 l -15.24794,22.81582 z"
       style="fill:#008066;fill-opacity:1;fill-rule:evenodd;stroke:none;stroke-width:1px;stroke-linecap:butt;stroke-linejoin:miter;stroke-opacity:1" />
    <path
       style="fill:#008066;fill-opacity:1;fill-rule:evenodd;stroke:none;stroke-width:1px;stroke-linecap:butt;stroke-linejoin:miter;stroke-opacity:1"
       d="m 448.28001,711.98681 0.18231,-28.44558 c 0,0 13.26474,4.04891 14.69036,-8.49726 1.42562,-12.54617 -5.40627,-1.63097 -15.39784,-43.43244 -9.99158,-41.80146 -18.59224,-171.89368 -18.59224,-171.89368 0,0 -7.03737,-18.59109 -10.03693,-1.1405 -2.99956,17.45059 16.72193,206.24737 9.71897,218.66811 -1.01506,4.45961 5.61162,8.77088 5.61162,8.77088 l -0.0683,27.44187 z"
       id="path4516"
       inkscape:connector-curvature="0" />
    <path
       style="fill:#008066;fill-opacity:1;fill-rule:evenodd;stroke:none;stroke-width:0.73280185px;stroke-linecap:butt;stroke-linejoin:miter;stroke-opacity:1"
       d="m 343.43395,267.47093 -13.02921,15.8512 c 0,0 -6.20275,-8.0356 -12.76495,-1.62893 -6.56216,6.40636 2.53677,3.26428 -10.39029,31.01925 -12.92704,27.75496 -66.79494,104.35087 -66.79494,104.35087 0,0 -4.17692,13.47178 5.56679,5.00321 9.74371,-8.46859 83.53067,-122.7768 93.41706,-126.68763 2.64072,-2.05614 0.58136,-7.35216 0.58136,-7.35216 l 12.50425,-15.33866 z"
       id="path4823"
       inkscape:connector-curvature="0" />
    <path
       inkscape:connector-curvature="0"
       id="path5118"
       d="m 239.18741,413.16473 -2.90433,-20.31213 c 0,0 10.11583,0.84589 9.81663,-8.32061 -0.29875,-9.16583 -4.12075,-0.33065 -15.87803,-28.6013 -11.75738,-28.27021 -21.98164,-73.82966 -21.98164,-73.82966 0,0 -4.41012,0.33959 -4.73655,13.24528 -0.32635,12.90537 21.57217,86.10087 17.78597,96.03575 -0.26525,3.33625 5.03327,5.39065 5.03327,5.39065 l 2.88028,19.579 z"
       style="fill:#008066;fill-opacity:1;fill-rule:evenodd;stroke:none;stroke-width:0.73280185px;stroke-linecap:butt;stroke-linejoin:miter;stroke-opacity:1"
       sodipodi:nodetypes="cccscscccc" />
    <path
       sodipodi:nodetypes="cccscscccc"
       style="fill:#008066;fill-opacity:1;fill-rule:evenodd;stroke:none;stroke-width:0.73280185px;stroke-linecap:butt;stroke-linejoin:miter;stroke-opacity:1"
       d="m 322.76754,335.03342 -17.38298,-10.90184 c 0,0 -3.33478,9.58763 -11.58979,5.59215 -8.25489,-3.99494 1.37099,-3.90001 -19.68975,-26.12392 -21.06045,-22.22394 -58.5432,-50.06714 -58.5432,-50.06714 0,0 2.101,-3.89223 14.02753,1.04987 11.92607,4.94207 69.92332,54.67578 80.5397,55.24985 3.15648,1.11259 2.88243,6.78863 2.88243,6.78863 l 16.7226,10.58242 z"
       id="path5076"
       inkscape:connector-curvature="0" />
    <path
       style="fill:#008066;fill-opacity:1;fill-rule:evenodd;stroke:none;stroke-width:1px;stroke-linecap:butt;stroke-linejoin:miter;stroke-opacity:1"
       d="m 378.57044,285.3594 c 0,0 20.67822,-22.9051 15.90632,-50.26397 -4.77189,-27.35888 23.54136,-25.76825 23.54136,-25.76825 0,0 17.49695,-5.72627 11.45255,10.8163 -6.0444,16.54258 -14.31569,54.39962 -3.49939,79.21348 10.8163,24.81386 -47.40084,-13.99756 -47.40084,-13.99756 z"
       id="path4985"
       inkscape:connector-curvature="0" />
    <path
       style="fill:#ececec;fill-rule:evenodd;stroke:#008066;stroke-width:4.26096344;stroke-linecap:butt;stroke-linejoin:miter;stroke-miterlimit:4;stroke-dasharray:none;stroke-opacity:1"
       d="m 379.72275,488.22486 c 0,0 -12.60265,-138.78045 -21.12335,-166.32108 -6.59219,-21.30727 3.57336,-56.2525 3.57336,-56.2525 0,0 3.57337,9.43591 29.6079,8.34714 26.03452,-1.08876 64.83106,-9.4359 64.83106,-9.4359 0,0 -3.33134,46.61278 -6.65461,66.82828 -4.71511,28.68195 -0.56808,118.85172 -0.0576,128.28762 0.51048,9.43591 -70.17677,28.54644 -70.17677,28.54644 z"
       id="path4777"
       inkscape:connector-curvature="0"
       sodipodi:nodetypes="cscscssc" />
    <path
       style="fill:none;fill-opacity:1;fill-rule:evenodd;stroke:#008066;stroke-width:5;stroke-linecap:butt;stroke-linejoin:miter;stroke-miterlimit:4;stroke-dasharray:none;stroke-opacity:1"
       d="m 354.95557,302.9008 18.92857,0 21.47315,37.19259"
       id="path4845"
       inkscape:connector-curvature="0" />
    <path
       inkscape:connector-curvature="0"
       id="path4872"
       d="m 442.89623,443.66107 -18.6708,0 -27.65712,-47.90354"
       style="fill:none;fill-rule:evenodd;stroke:#008066;stroke-width:5;stroke-linecap:butt;stroke-linejoin:miter;stroke-miterlimit:4;stroke-dasharray:none;stroke-opacity:1" />
    <path
       style="fill:#008066;fill-opacity:1;fill-rule:evenodd;stroke:none;stroke-width:1px;stroke-linecap:butt;stroke-linejoin:miter;stroke-opacity:1"
       d="M 279.76317,887.02624 275.8927,858.8446 c 0,0 -12.62743,5.73534 -15.6684,-6.51992 -3.04093,-12.25528 5.149,-2.31848 9.63411,-45.06287 4.48513,-42.74426 -3.86125,-172.85308 -3.86125,-172.85308 0,0 4.5665,-19.34686 9.80414,-2.4328 5.23779,16.91418 10.17182,206.67405 18.72675,218.08157 1.58493,4.29021 -4.42653,9.42464 -4.42653,9.42464 l 3.62712,27.20113 z"
       id="path4474"
       inkscape:connector-curvature="0" />
    <path
       inkscape:connector-curvature="0"
       id="path4490"
       d="m 509.03629,926.39944 -9.0504,-26.96802 c 0,0 -11.33869,7.98631 -16.60847,-3.48837 -5.26979,-11.47467 4.62727,-3.23668 1.07457,-46.06859 -3.55268,-42.83191 -35.9803,-169.11099 -35.9803,-169.11099 0,0 0.88406,-19.8588 9.17973,-4.21583 8.29568,15.64296 48.47819,201.16527 59.00762,210.78022 2.35611,3.92011 -2.59417,10.08409 -2.59417,10.08409 l 8.62885,26.05002 z"
       style="fill:#008066;fill-opacity:1;fill-rule:evenodd;stroke:none;stroke-width:1px;stroke-linecap:butt;stroke-linejoin:miter;stroke-opacity:1" />
    <circle
       r="39.773609"
       cy="739.86945"
       cx="350.64182"
       id="circle4492"
       style="fill:#f9f9f9;fill-opacity:1;stroke:#091336;stroke-width:8.83858013;stroke-linecap:round;stroke-linejoin:round;stroke-miterlimit:4;stroke-dasharray:none;stroke-dashoffset:0;stroke-opacity:1"
       transform="matrix(0.99360598,-0.11290331,0.11290331,0.99360598,0,0)" />
    <path
       inkscape:connector-curvature="0"
       id="path4494"
       d="m 413.471,728.78201 c 0,0 13.57251,-37.12408 58.48075,-33.33153"
       style="fill:none;fill-rule:evenodd;stroke:#ff0000;stroke-width:5.30314779;stroke-linecap:butt;stroke-linejoin:miter;stroke-miterlimit:4;stroke-dasharray:5.3031478, 15.90944341;stroke-dashoffset:0;stroke-opacity:1" />
    <path
       style="fill:none;fill-rule:evenodd;stroke:#ff0000;stroke-width:5.30314779;stroke-linecap:butt;stroke-linejoin:miter;stroke-miterlimit:4;stroke-dasharray:5.3031478, 15.90944341;stroke-dashoffset:0;stroke-opacity:1"
       d="m 451.27871,661.57381 c 0,0 -13.5725,37.12407 -58.48073,33.33153"
       id="path4496"
       inkscape:connector-curvature="0" />
    <circle
       style="fill:none;fill-opacity:1;stroke:#091336;stroke-width:8.83858013;stroke-linecap:round;stroke-linejoin:round;stroke-miterlimit:4;stroke-dasharray:none;stroke-dashoffset:0;stroke-opacity:1"
       id="circle4498"
       cx="350.64182"
       cy="739.86945"
       r="39.773609"
       transform="matrix(0.99360598,-0.11290331,0.11290331,0.99360598,0,0)" />
    <g
       id="g4445"
       transform="matrix(0.97056716,-0.24083059,0.24083059,0.97056716,-77.54231,275.46031)"
       style="fill:#999999;stroke:#000000;stroke-opacity:1">
      <path
         sodipodi:nodetypes="cccccccccccccc"
         inkscape:connector-curvature="0"
         id="path4188"
         d="m 133.57143,738.79078 34.28571,14.28571 14.28572,-17.85714 22.14285,-15 17.14286,-10.71429 2.85714,-46.42857 -9.70327,3.97475 -10.25681,-0.52399 -8.05264,-2.66658 -6.27299,-5.78418 -4.28571,21.42857 -9.28572,17.14286 -23.57143,12.85714 z"
         style="fill:#999999;fill-rule:evenodd;stroke:#000000;stroke-width:5;stroke-linecap:round;stroke-linejoin:bevel;stroke-miterlimit:4;stroke-dasharray:none;stroke-opacity:1" />
      <path
         inkscape:connector-curvature="0"
         id="path4190"
         d="m 161.78571,718.6122 18.39286,6.78572"
         style="fill:#999999;fill-rule:evenodd;stroke:#000000;stroke-width:1;stroke-linecap:butt;stroke-linejoin:miter;stroke-miterlimit:4;stroke-dasharray:1, 1;stroke-dashoffset:0;stroke-opacity:1" />
      <path
         inkscape:connector-curvature="0"
         id="path4192"
         d="m 175.17857,705.21935 18.52398,4.96348"
         style="fill:#999999;fill-rule:evenodd;stroke:#000000;stroke-width:1;stroke-linecap:butt;stroke-linejoin:miter;stroke-miterlimit:4;stroke-dasharray:1, 1;stroke-dashoffset:0;stroke-opacity:1" />
      <path
         inkscape:connector-curvature="0"
         id="path4194"
         d="m 167.67857,712.89792 18.65791,4.99937"
         style="fill:#999999;fill-rule:evenodd;stroke:#000000;stroke-width:1;stroke-linecap:butt;stroke-linejoin:miter;stroke-miterlimit:4;stroke-dasharray:1, 1;stroke-dashoffset:0;stroke-opacity:1" />
      <path
         sodipodi:nodetypes="cccccccc"
         inkscape:connector-curvature="0"
         id="path4443"
         d="m 168.39286,753.6122 34.61442,-19.12941 5.59207,-7.52267 7.42991,-3.86517 5.57788,2.66011 0,-15.35714 -38.75,24.64286 z"
         style="fill:#999999;fill-opacity:1;fill-rule:evenodd;stroke:#000000;stroke-width:5;stroke-linecap:round;stroke-linejoin:round;stroke-miterlimit:4;stroke-dasharray:none;stroke-opacity:1" />
    </g>
    <g
       id="g4452"
       transform="matrix(0.98235025,-0.18705088,0.18705088,0.98235025,188.47769,290.10561)"
       style="fill:#999999;fill-opacity:1;stroke:#000000;stroke-opacity:1">
      <path
         style="fill:#999999;fill-rule:evenodd;stroke:#000000;stroke-width:5;stroke-linecap:round;stroke-linejoin:bevel;stroke-miterlimit:4;stroke-dasharray:none;stroke-opacity:1;fill-opacity:1"
         d="m 144.01068,765.8764 36.58928,6.38874 10.00484,-20.56362 18.29816,-19.50598 14.36411,-14.22483 -7.4323,-45.9188 -8.59042,6.01305 -10.12059,1.74648 -8.44209,-0.82872 -7.3923,-4.26158 0.53603,21.84637 -5.28469,18.76631 -20.16336,17.73011 z"
         id="path4454"
         inkscape:connector-curvature="0"
         sodipodi:nodetypes="cccccccccccccc" />
      <path
         style="fill:#999999;fill-rule:evenodd;stroke:#000000;stroke-width:1;stroke-linecap:butt;stroke-linejoin:miter;stroke-miterlimit:4;stroke-dasharray:1, 1;stroke-dashoffset:0;stroke-opacity:1;fill-opacity:1"
         d="m 173.52873,731.49164 18.39286,6.78572"
         id="path4456"
         inkscape:connector-curvature="0" />
      <path
         style="fill:#999999;fill-rule:evenodd;stroke:#000000;stroke-width:1;stroke-linecap:butt;stroke-linejoin:miter;stroke-miterlimit:4;stroke-dasharray:1, 1;stroke-dashoffset:0;stroke-opacity:1;fill-opacity:1"
         d="m 186.92159,718.09879 18.52398,4.96348"
         id="path4458"
         inkscape:connector-curvature="0" />
      <path
         style="fill:#999999;fill-rule:evenodd;stroke:#000000;stroke-width:1;stroke-linecap:butt;stroke-linejoin:miter;stroke-miterlimit:4;stroke-dasharray:1, 1;stroke-dashoffset:0;stroke-opacity:1;fill-opacity:1"
         d="m 179.42159,725.77736 18.65791,4.99937"
         id="path4460"
         inkscape:connector-curvature="0" />
      <path
         style="fill:#999999;fill-opacity:1;fill-rule:evenodd;stroke:#000000;stroke-width:5;stroke-linecap:round;stroke-linejoin:round;stroke-miterlimit:4;stroke-dasharray:none;stroke-opacity:1"
         d="m 181.24046,772.66979 29.55494,-26.27922 3.79911,-8.56905 6.39694,-5.40577 6.0266,1.36713 -3.38026,-14.98051 -32.37553,32.56774 z"
         id="path4462"
         inkscape:connector-curvature="0"
         sodipodi:nodetypes="cccccccc" />
    </g>
    <path
       inkscape:connector-curvature="0"
       id="path4874"
       d="m 448.32917,415.35626 -8.11223,0 -15.80486,-27.37483"
       style="fill:none;fill-rule:evenodd;stroke:#008066;stroke-width:5;stroke-linecap:butt;stroke-linejoin:miter;stroke-miterlimit:4;stroke-dasharray:none;stroke-opacity:1" />
    <circle
       style="fill:#f9f9f9;fill-opacity:1;stroke:#091336;stroke-width:8.83858013;stroke-linecap:round;stroke-linejoin:round;stroke-miterlimit:4;stroke-dasharray:none;stroke-dashoffset:0;stroke-opacity:1"
       id="path4478"
       cx="112.82461"
       cy="687.23071"
       r="39.773609"
       transform="matrix(0.97056717,-0.24083056,0.24083056,0.97056717,0,0)" />
    <path
       style="fill:none;fill-rule:evenodd;stroke:#ff0000;stroke-width:5.30314779;stroke-linecap:butt;stroke-linejoin:miter;stroke-miterlimit:4;stroke-dasharray:5.3031478, 15.90944341;stroke-dashoffset:0;stroke-opacity:1"
       d="m 261.01405,675.17798 c 0,0 8.64245,-38.57091 53.66323,-40.63548"
       id="path4480"
       inkscape:connector-curvature="0" />
    <path
       inkscape:connector-curvature="0"
       id="path4482"
       d="m 289.78472,603.63353 c 0,0 -8.64239,38.5709 -53.66321,40.63551"
       style="fill:none;fill-rule:evenodd;stroke:#ff0000;stroke-width:5.30314779;stroke-linecap:butt;stroke-linejoin:miter;stroke-miterlimit:4;stroke-dasharray:5.3031478, 15.90944341;stroke-dashoffset:0;stroke-opacity:1" />
    <circle
       r="39.773609"
       cy="687.23071"
       cx="112.82461"
       id="circle4484"
       style="fill:none;fill-opacity:1;stroke:#008066;stroke-width:8.83858013;stroke-linecap:round;stroke-linejoin:round;stroke-miterlimit:4;stroke-dasharray:none;stroke-dashoffset:0;stroke-opacity:1"
       transform="matrix(0.97056717,-0.24083056,0.24083056,0.97056717,0,0)" />
    <path
       inkscape:connector-curvature="0"
       id="path4870"
       d="m 449.87754,427.71405 -18.92857,0 -21.47315,-37.19259"
       style="fill:none;fill-opacity:1;fill-rule:evenodd;stroke:#008066;stroke-width:5;stroke-linecap:butt;stroke-linejoin:miter;stroke-miterlimit:4;stroke-dasharray:none;stroke-opacity:1" />
    <path
       style="fill:#008066;fill-opacity:1;fill-rule:evenodd;stroke:none;stroke-width:5.00000048;stroke-linecap:butt;stroke-linejoin:miter;stroke-miterlimit:4;stroke-dasharray:none;stroke-opacity:1"
       d="M 349.09561,584.36197 463.96713,563.4678 c 0,0 27.13654,-31.10227 16.32,-48.79749 -10.81656,-17.69522 -26.4202,14.98408 -31.83601,6.9475 -5.41582,-8.03658 14.33795,-59.61105 6.75044,-75.65405 -7.5875,-16.04299 -53.05134,-4.79829 -59.45161,5.8113 -6.40027,10.60961 6.5,25.64134 -2.56295,27.36646 -9.06293,1.72512 -16.38233,-16.31195 -22.90074,-13.12815 -13.23536,11.36694 7.69127,30.48639 6.098,61.08058 -0.91216,17.51553 -24.62987,52.40174 -27.28865,57.26802 z"
       id="path4355"
       inkscape:connector-curvature="0"
       sodipodi:nodetypes="ccssssscsc" />
    <path
       sodipodi:type="star"
       style="fill:#ffcc00;fill-opacity:1;stroke:none;stroke-width:3;stroke-linecap:round;stroke-linejoin:round;stroke-miterlimit:4;stroke-dasharray:3, 9;stroke-dashoffset:0;stroke-opacity:1"
       id="path4508"
       sodipodi:sides="5"
       sodipodi:cx="401.34351"
       sodipodi:cy="508.11776"
       sodipodi:r1="15.016997"
       sodipodi:r2="7.5084987"
       sodipodi:arg1="-0.34302394"
       sodipodi:arg2="0.28529459"
       inkscape:flatsided="false"
       inkscape:rounded="0"
       inkscape:randomized="0"
       d="m 415.48564,503.067 -6.93714,7.16396 1.96873,9.77601 -8.95702,-4.38383 -8.68917,4.89332 1.4014,-9.87331 -7.33893,-6.75177 9.82314,-1.71821 4.15346,-9.06614 4.66963,8.81139 z"
       inkscape:transform-center-x="0.13392814"
       inkscape:transform-center-y="-1.3060251" />
    <path
       style="fill:none;fill-rule:evenodd;stroke:#ff0000;stroke-width:5.30314779;stroke-linecap:butt;stroke-linejoin:miter;stroke-miterlimit:4;stroke-dasharray:5.3031478, 15.90944341;stroke-dashoffset:0;stroke-opacity:1"
       d="m 413.471,728.78201 c 0,0 13.57251,-37.12408 58.48075,-33.33153"
       id="path4646"
       inkscape:connector-curvature="0" />
    <path
       inkscape:connector-curvature="0"
       id="path4648"
       d="m 451.27871,661.57381 c 0,0 -13.5725,37.12407 -58.48073,33.33153"
       style="fill:none;fill-rule:evenodd;stroke:#ff0000;stroke-width:5.30314779;stroke-linecap:butt;stroke-linejoin:miter;stroke-miterlimit:4;stroke-dasharray:5.3031478, 15.90944341;stroke-dashoffset:0;stroke-opacity:1" />
    <circle
       transform="matrix(0.99360598,-0.11290331,0.11290331,0.99360598,0,0)"
       r="39.773609"
       cy="739.86945"
       cx="350.64182"
       id="circle4650"
       style="fill:none;fill-opacity:1;stroke:#008066;stroke-width:8.83858013;stroke-linecap:round;stroke-linejoin:round;stroke-miterlimit:4;stroke-dasharray:none;stroke-dashoffset:0;stroke-opacity:1" />
    <g
       id="g4748"
       transform="translate(-0.67795872,37.340301)">
      <ellipse
         cy="507.63931"
         cx="-142.07217"
         id="circle4652"
         style="fill:#f9f9f9;fill-opacity:1;stroke:#091336;stroke-width:8.83871269;stroke-linecap:round;stroke-linejoin:round;stroke-miterlimit:4;stroke-dasharray:none;stroke-dashoffset:0;stroke-opacity:1"
         transform="matrix(0.40070096,-0.9162089,0.91307911,0.40778246,0,0)"
         rx="39.607338"
         ry="39.941776" />
      <path
         inkscape:connector-curvature="0"
         id="path4654"
         d="m 426.13487,370.00264 c 0,0 -25.36415,-30.60609 0.37442,-67.3073"
         style="fill:none;fill-rule:evenodd;stroke:#ff0000;stroke-width:5.30314779;stroke-linecap:butt;stroke-linejoin:miter;stroke-miterlimit:4;stroke-dasharray:5.3031478, 15.90944341;stroke-dashoffset:0;stroke-opacity:1" />
      <path
         style="fill:none;fill-rule:evenodd;stroke:#ff0000;stroke-width:5.30314779;stroke-linecap:butt;stroke-linejoin:miter;stroke-miterlimit:4;stroke-dasharray:5.3031478, 15.90944341;stroke-dashoffset:0;stroke-opacity:1"
         d="m 386.83471,303.2069 c 0,0 25.36414,30.60608 -0.37441,67.30728"
         id="path4656"
         inkscape:connector-curvature="0" />
      <ellipse
         style="fill:none;fill-opacity:1;stroke:#091336;stroke-width:8.83871269;stroke-linecap:round;stroke-linejoin:round;stroke-miterlimit:4;stroke-dasharray:none;stroke-dashoffset:0;stroke-opacity:1"
         id="circle4658"
         cx="-142.07217"
         cy="507.63931"
         transform="matrix(0.40070096,-0.9162089,0.91307911,0.40778246,0,0)"
         rx="39.607338"
         ry="39.941776" />
      <path
         style="fill:none;fill-rule:evenodd;stroke:#ff0000;stroke-width:5.30314779;stroke-linecap:butt;stroke-linejoin:miter;stroke-miterlimit:4;stroke-dasharray:5.3031478, 15.90944341;stroke-dashoffset:0;stroke-opacity:1"
         d="m 426.13487,370.00264 c 0,0 -25.36415,-30.60609 0.37442,-67.3073"
         id="path4660"
         inkscape:connector-curvature="0" />
      <path
         inkscape:connector-curvature="0"
         id="path4662"
         d="m 386.83471,303.2069 c 0,0 25.36414,30.60608 -0.37441,67.30728"
         style="fill:none;fill-rule:evenodd;stroke:#ff0000;stroke-width:5.30314779;stroke-linecap:butt;stroke-linejoin:miter;stroke-miterlimit:4;stroke-dasharray:5.3031478, 15.90944341;stroke-dashoffset:0;stroke-opacity:1" />
      <ellipse
         transform="matrix(0.40070096,-0.9162089,0.91307911,0.40778246,0,0)"
         cy="507.63931"
         cx="-142.07217"
         id="circle4664"
         style="fill:none;fill-opacity:1;stroke:#008066;stroke-width:8.83871269;stroke-linecap:round;stroke-linejoin:round;stroke-miterlimit:4;stroke-dasharray:none;stroke-dashoffset:0;stroke-opacity:1"
         rx="39.607338"
         ry="39.941776" />
    </g>
    <path
       style="fill:none;fill-rule:evenodd;stroke:#008066;stroke-width:5;stroke-linecap:butt;stroke-linejoin:miter;stroke-miterlimit:4;stroke-dasharray:none;stroke-opacity:1"
       d="m 361.93688,286.95378 18.6708,0 27.65712,47.90354"
       id="path4847"
       inkscape:connector-curvature="0" />
    <path
       inkscape:connector-curvature="0"
       id="path4817"
       d="m 458.62365,272.44665 -42.6505,10.55742 0,-21.11484 42.6505,-10.55743 z"
       style="fill:#cccccc;fill-opacity:1;fill-rule:evenodd;stroke:#008066;stroke-width:5;stroke-linecap:butt;stroke-linejoin:miter;stroke-miterlimit:4;stroke-dasharray:none;stroke-opacity:1" />
    <path
       style="fill:none;fill-rule:evenodd;stroke:#008066;stroke-width:5;stroke-linecap:butt;stroke-linejoin:miter;stroke-miterlimit:4;stroke-dasharray:none;stroke-opacity:1"
       d="m 356.50394,315.25859 8.11223,0 15.80486,27.37483"
       id="path4849"
       inkscape:connector-curvature="0" />
    <g
       id="g5078"
       transform="matrix(-0.99888445,0.04722026,-0.04722026,-0.99888445,938.52634,520.85538)">
      <path
         sodipodi:nodetypes="cccscscccc"
         style="display:inline;fill:#008066;fill-opacity:1;fill-rule:evenodd;stroke:none;stroke-width:0.73280185px;stroke-linecap:butt;stroke-linejoin:miter;stroke-opacity:1"
         d="m 466.35926,270.96115 17.65076,-10.46271 c 0,0 -6.99691,-7.35439 0.33468,-12.86405 7.33102,-5.50982 2.83949,3.00446 32.23983,-5.54418 29.40017,-8.5484 71.31489,-29.12399 71.31489,-29.12399 0,0 2.4983,3.64998 -7.35575,11.99023 -9.85394,8.33999 -80.62244,37.13134 -85.99349,46.30682 -2.43441,2.29674 -7.35499,-0.54557 -7.35499,-0.54557 l -17.06441,10.02194 z"
         id="path4779"
         inkscape:connector-curvature="0" />
      <g
         id="g4797"
         transform="matrix(0.35755253,-0.48917177,0.48917177,0.35755253,157.90168,350.68583)">
        <ellipse
           cy="507.63931"
           cx="-142.07217"
           id="ellipse4799"
           style="fill:#f9f9f9;fill-opacity:1;stroke:#091336;stroke-width:8.83871269;stroke-linecap:round;stroke-linejoin:round;stroke-miterlimit:4;stroke-dasharray:none;stroke-dashoffset:0;stroke-opacity:1"
           transform="matrix(0.40070096,-0.9162089,0.91307911,0.40778246,0,0)"
           rx="39.607338"
           ry="39.941776" />
        <path
           inkscape:connector-curvature="0"
           id="path4801"
           d="m 426.13487,370.00264 c 0,0 -25.36415,-30.60609 0.37442,-67.3073"
           style="fill:none;fill-rule:evenodd;stroke:#ff0000;stroke-width:5.30314779;stroke-linecap:butt;stroke-linejoin:miter;stroke-miterlimit:4;stroke-dasharray:5.3031478, 15.90944341;stroke-dashoffset:0;stroke-opacity:1" />
        <path
           style="fill:none;fill-rule:evenodd;stroke:#ff0000;stroke-width:5.30314779;stroke-linecap:butt;stroke-linejoin:miter;stroke-miterlimit:4;stroke-dasharray:5.3031478, 15.90944341;stroke-dashoffset:0;stroke-opacity:1"
           d="m 386.83471,303.2069 c 0,0 25.36414,30.60608 -0.37441,67.30728"
           id="path4803"
           inkscape:connector-curvature="0" />
        <ellipse
           style="fill:none;fill-opacity:1;stroke:#091336;stroke-width:8.83871269;stroke-linecap:round;stroke-linejoin:round;stroke-miterlimit:4;stroke-dasharray:none;stroke-dashoffset:0;stroke-opacity:1"
           id="ellipse4805"
           cx="-142.07217"
           cy="507.63931"
           transform="matrix(0.40070096,-0.9162089,0.91307911,0.40778246,0,0)"
           rx="39.607338"
           ry="39.941776" />
        <path
           style="fill:none;fill-rule:evenodd;stroke:#ff0000;stroke-width:5.30314779;stroke-linecap:butt;stroke-linejoin:miter;stroke-miterlimit:4;stroke-dasharray:5.3031478, 15.90944341;stroke-dashoffset:0;stroke-opacity:1"
           d="m 426.13487,370.00264 c 0,0 -25.36415,-30.60609 0.37442,-67.3073"
           id="path4807"
           inkscape:connector-curvature="0" />
        <path
           inkscape:connector-curvature="0"
           id="path4809"
           d="m 386.83471,303.2069 c 0,0 25.36414,30.60608 -0.37441,67.30728"
           style="fill:none;fill-rule:evenodd;stroke:#ff0000;stroke-width:5.30314779;stroke-linecap:butt;stroke-linejoin:miter;stroke-miterlimit:4;stroke-dasharray:5.3031478, 15.90944341;stroke-dashoffset:0;stroke-opacity:1" />
        <ellipse
           transform="matrix(0.40070096,-0.9162089,0.91307911,0.40778246,0,0)"
           cy="507.63931"
           cx="-142.07217"
           id="ellipse4811"
           style="fill:none;fill-opacity:1;stroke:#008066;stroke-width:8.83871269;stroke-linecap:round;stroke-linejoin:round;stroke-miterlimit:4;stroke-dasharray:none;stroke-dashoffset:0;stroke-opacity:1"
           rx="39.607338"
           ry="39.941776" />
      </g>
    </g>
    <path
       style="fill:#cccccc;fill-opacity:1;fill-rule:evenodd;stroke:#008066;stroke-width:5;stroke-linecap:butt;stroke-linejoin:miter;stroke-miterlimit:4;stroke-dasharray:none;stroke-opacity:1"
       d="m 356.63525,272.76578 39.11338,10.61137 0,-21.22275 -39.11338,-10.61138 z"
       id="path4815"
       inkscape:connector-curvature="0" />
    <g
       id="g5060"
       transform="matrix(0.35755253,-0.48917177,0.48917177,0.35755253,23.665191,408.59713)">
      <ellipse
         cy="507.63931"
         cx="-142.07217"
         id="ellipse5062"
         style="fill:#f9f9f9;fill-opacity:1;stroke:#091336;stroke-width:8.83871269;stroke-linecap:round;stroke-linejoin:round;stroke-miterlimit:4;stroke-dasharray:none;stroke-dashoffset:0;stroke-opacity:1"
         transform="matrix(0.40070096,-0.9162089,0.91307911,0.40778246,0,0)"
         rx="39.607338"
         ry="39.941776" />
      <path
         inkscape:connector-curvature="0"
         id="path5064"
         d="m 426.13487,370.00264 c 0,0 -25.36415,-30.60609 0.37442,-67.3073"
         style="fill:none;fill-rule:evenodd;stroke:#ff0000;stroke-width:5.30314779;stroke-linecap:butt;stroke-linejoin:miter;stroke-miterlimit:4;stroke-dasharray:5.3031478, 15.90944341;stroke-dashoffset:0;stroke-opacity:1" />
      <path
         style="fill:none;fill-rule:evenodd;stroke:#ff0000;stroke-width:5.30314779;stroke-linecap:butt;stroke-linejoin:miter;stroke-miterlimit:4;stroke-dasharray:5.3031478, 15.90944341;stroke-dashoffset:0;stroke-opacity:1"
         d="m 386.83471,303.2069 c 0,0 25.36414,30.60608 -0.37441,67.30728"
         id="path5066"
         inkscape:connector-curvature="0" />
      <ellipse
         style="fill:none;fill-opacity:1;stroke:#091336;stroke-width:8.83871269;stroke-linecap:round;stroke-linejoin:round;stroke-miterlimit:4;stroke-dasharray:none;stroke-dashoffset:0;stroke-opacity:1"
         id="ellipse5068"
         cx="-142.07217"
         cy="507.63931"
         transform="matrix(0.40070096,-0.9162089,0.91307911,0.40778246,0,0)"
         rx="39.607338"
         ry="39.941776" />
      <path
         style="fill:none;fill-rule:evenodd;stroke:#ff0000;stroke-width:5.30314779;stroke-linecap:butt;stroke-linejoin:miter;stroke-miterlimit:4;stroke-dasharray:5.3031478, 15.90944341;stroke-dashoffset:0;stroke-opacity:1"
         d="m 426.13487,370.00264 c 0,0 -25.36415,-30.60609 0.37442,-67.3073"
         id="path5070"
         inkscape:connector-curvature="0" />
      <path
         inkscape:connector-curvature="0"
         id="path5072"
         d="m 386.83471,303.2069 c 0,0 25.36414,30.60608 -0.37441,67.30728"
         style="fill:none;fill-rule:evenodd;stroke:#ff0000;stroke-width:5.30314779;stroke-linecap:butt;stroke-linejoin:miter;stroke-miterlimit:4;stroke-dasharray:5.3031478, 15.90944341;stroke-dashoffset:0;stroke-opacity:1" />
      <ellipse
         transform="matrix(0.40070096,-0.9162089,0.91307911,0.40778246,0,0)"
         cy="507.63931"
         cx="-142.07217"
         id="ellipse5074"
         style="fill:none;fill-opacity:1;stroke:#008066;stroke-width:8.83871269;stroke-linecap:round;stroke-linejoin:round;stroke-miterlimit:4;stroke-dasharray:none;stroke-dashoffset:0;stroke-opacity:1"
         rx="39.607338"
         ry="39.941776" />
    </g>
    <g
       transform="matrix(-0.54815109,-0.25819213,0.25819213,-0.54815109,372.49024,692.44586)"
       id="g5102">
      <ellipse
         ry="39.941776"
         rx="39.607338"
         transform="matrix(0.40070096,-0.9162089,0.91307911,0.40778246,0,0)"
         style="fill:#f9f9f9;fill-opacity:1;stroke:#091336;stroke-width:8.83871269;stroke-linecap:round;stroke-linejoin:round;stroke-miterlimit:4;stroke-dasharray:none;stroke-dashoffset:0;stroke-opacity:1"
         id="ellipse5104"
         cx="-142.07217"
         cy="507.63931" />
      <path
         style="fill:none;fill-rule:evenodd;stroke:#ff0000;stroke-width:5.30314779;stroke-linecap:butt;stroke-linejoin:miter;stroke-miterlimit:4;stroke-dasharray:5.3031478, 15.90944341;stroke-dashoffset:0;stroke-opacity:1"
         d="m 426.13487,370.00264 c 0,0 -25.36415,-30.60609 0.37442,-67.3073"
         id="path5106"
         inkscape:connector-curvature="0" />
      <path
         inkscape:connector-curvature="0"
         id="path5108"
         d="m 386.83471,303.2069 c 0,0 25.36414,30.60608 -0.37441,67.30728"
         style="fill:none;fill-rule:evenodd;stroke:#ff0000;stroke-width:5.30314779;stroke-linecap:butt;stroke-linejoin:miter;stroke-miterlimit:4;stroke-dasharray:5.3031478, 15.90944341;stroke-dashoffset:0;stroke-opacity:1" />
      <ellipse
         ry="39.941776"
         rx="39.607338"
         transform="matrix(0.40070096,-0.9162089,0.91307911,0.40778246,0,0)"
         cy="507.63931"
         cx="-142.07217"
         id="ellipse5110"
         style="fill:none;fill-opacity:1;stroke:#091336;stroke-width:8.83871269;stroke-linecap:round;stroke-linejoin:round;stroke-miterlimit:4;stroke-dasharray:none;stroke-dashoffset:0;stroke-opacity:1" />
      <path
         inkscape:connector-curvature="0"
         id="path5112"
         d="m 426.13487,370.00264 c 0,0 -25.36415,-30.60609 0.37442,-67.3073"
         style="fill:none;fill-rule:evenodd;stroke:#ff0000;stroke-width:5.30314779;stroke-linecap:butt;stroke-linejoin:miter;stroke-miterlimit:4;stroke-dasharray:5.3031478, 15.90944341;stroke-dashoffset:0;stroke-opacity:1" />
      <path
         style="fill:none;fill-rule:evenodd;stroke:#ff0000;stroke-width:5.30314779;stroke-linecap:butt;stroke-linejoin:miter;stroke-miterlimit:4;stroke-dasharray:5.3031478, 15.90944341;stroke-dashoffset:0;stroke-opacity:1"
         d="m 386.83471,303.2069 c 0,0 25.36414,30.60608 -0.37441,67.30728"
         id="path5114"
         inkscape:connector-curvature="0" />
      <ellipse
         ry="39.941776"
         rx="39.607338"
         style="fill:none;fill-opacity:1;stroke:#008066;stroke-width:8.83871269;stroke-linecap:round;stroke-linejoin:round;stroke-miterlimit:4;stroke-dasharray:none;stroke-dashoffset:0;stroke-opacity:1"
         id="ellipse5116"
         cx="-142.07217"
         cy="507.63931"
         transform="matrix(0.40070096,-0.9162089,0.91307911,0.40778246,0,0)" />
      <circle
         style="fill:#008066;fill-opacity:1;stroke:none;stroke-width:8.2519846;stroke-linecap:round;stroke-linejoin:round;stroke-miterlimit:4;stroke-dasharray:none;stroke-dashoffset:0;stroke-opacity:1"
         id="path4374"
         cx="58.527657"
         cy="-814.62695"
         r="35.702374"
         transform="matrix(-0.90466688,0.42611952,-0.42611952,-0.90466688,0,0)" />
    </g>
    <g
       id="g4827"
       transform="matrix(-0.49803228,0.34510385,0.34510385,0.49803228,434.35739,-41.580814)">
      <ellipse
         cy="507.63931"
         cx="-142.07217"
         id="ellipse4829"
         style="fill:#f9f9f9;fill-opacity:1;stroke:#091336;stroke-width:8.83871269;stroke-linecap:round;stroke-linejoin:round;stroke-miterlimit:4;stroke-dasharray:none;stroke-dashoffset:0;stroke-opacity:1"
         transform="matrix(0.40070096,-0.9162089,0.91307911,0.40778246,0,0)"
         rx="39.607338"
         ry="39.941776" />
      <path
         inkscape:connector-curvature="0"
         id="path4831"
         d="m 426.13487,370.00264 c 0,0 -25.36415,-30.60609 0.37442,-67.3073"
         style="fill:none;fill-rule:evenodd;stroke:#ff0000;stroke-width:5.30314779;stroke-linecap:butt;stroke-linejoin:miter;stroke-miterlimit:4;stroke-dasharray:5.3031478, 15.90944341;stroke-dashoffset:0;stroke-opacity:1" />
      <path
         style="fill:none;fill-rule:evenodd;stroke:#ff0000;stroke-width:5.30314779;stroke-linecap:butt;stroke-linejoin:miter;stroke-miterlimit:4;stroke-dasharray:5.3031478, 15.90944341;stroke-dashoffset:0;stroke-opacity:1"
         d="m 386.83471,303.2069 c 0,0 25.36414,30.60608 -0.37441,67.30728"
         id="path4833"
         inkscape:connector-curvature="0" />
      <ellipse
         style="fill:none;fill-opacity:1;stroke:#091336;stroke-width:8.83871269;stroke-linecap:round;stroke-linejoin:round;stroke-miterlimit:4;stroke-dasharray:none;stroke-dashoffset:0;stroke-opacity:1"
         id="ellipse4835"
         cx="-142.07217"
         cy="507.63931"
         transform="matrix(0.40070096,-0.9162089,0.91307911,0.40778246,0,0)"
         rx="39.607338"
         ry="39.941776" />
      <path
         style="fill:none;fill-rule:evenodd;stroke:#ff0000;stroke-width:5.30314779;stroke-linecap:butt;stroke-linejoin:miter;stroke-miterlimit:4;stroke-dasharray:5.3031478, 15.90944341;stroke-dashoffset:0;stroke-opacity:1"
         d="m 426.13487,370.00264 c 0,0 -25.36415,-30.60609 0.37442,-67.3073"
         id="path4837"
         inkscape:connector-curvature="0" />
      <path
         inkscape:connector-curvature="0"
         id="path4839"
         d="m 386.83471,303.2069 c 0,0 25.36414,30.60608 -0.37441,67.30728"
         style="fill:none;fill-rule:evenodd;stroke:#ff0000;stroke-width:5.30314779;stroke-linecap:butt;stroke-linejoin:miter;stroke-miterlimit:4;stroke-dasharray:5.3031478, 15.90944341;stroke-dashoffset:0;stroke-opacity:1" />
      <ellipse
         transform="matrix(0.40070096,-0.9162089,0.91307911,0.40778246,0,0)"
         cy="507.63931"
         cx="-142.07217"
         id="ellipse4841"
         style="fill:none;fill-opacity:1;stroke:#008066;stroke-width:8.83871269;stroke-linecap:round;stroke-linejoin:round;stroke-miterlimit:4;stroke-dasharray:none;stroke-dashoffset:0;stroke-opacity:1"
         rx="39.607338"
         ry="39.941776" />
    </g>
    <path
       sodipodi:type="star"
       style="fill:url(#radialGradient4410);fill-opacity:1;stroke:none;stroke-width:5;stroke-linecap:round;stroke-linejoin:round;stroke-miterlimit:4;stroke-dasharray:none;stroke-dashoffset:0;stroke-opacity:1"
       id="path4353"
       sodipodi:sides="5"
       sodipodi:cx="414.85544"
       sodipodi:cy="143.04289"
       sodipodi:r1="105.86538"
       sodipodi:r2="85.646889"
       sodipodi:arg1="0.96061621"
       sodipodi:arg2="1.5889347"
       inkscape:flatsided="true"
       inkscape:rounded="0"
       inkscape:randomized="0"
       d="M 475.5179,229.80432 351.08615,227.54707 314.78139,108.50793 416.77556,37.194928 516.11619,112.16022 Z"
       inkscape:transform-center-x="-0.59333618"
       inkscape:transform-center-y="-9.5432815" />
    <circle
       style="fill:#001500;fill-opacity:1;stroke:none;stroke-width:5;stroke-linecap:round;stroke-linejoin:round;stroke-miterlimit:4;stroke-dasharray:none;stroke-dashoffset:0;stroke-opacity:1"
       id="path4376"
       cx="414.15646"
       cy="188.83031"
       r="24.336672" />
    <path
       style="fill:#ffffff;fill-opacity:1;fill-rule:evenodd;stroke:none;stroke-width:1px;stroke-linecap:butt;stroke-linejoin:miter;stroke-opacity:1"
       d="m 396.10277,173.16259 c 0,0 3.21114,10.14961 7.39644,12.566 0.2386,0 -6.20346,-16.38351 -3.81752,-17.97414"
       id="path4378"
       inkscape:connector-curvature="0" />
    <path
       inkscape:connector-curvature="0"
       id="path4382"
       d="m 433.48911,173.16259 c 0,0 -3.21114,10.14961 -7.39644,12.566 -0.2386,0 6.20346,-16.38351 3.81752,-17.97414"
       style="fill:#ffffff;fill-opacity:1;fill-rule:evenodd;stroke:none;stroke-width:1px;stroke-linecap:butt;stroke-linejoin:miter;stroke-opacity:1" />
    <path
       inkscape:connector-curvature="0"
       id="path4384"
       d="m 396.10277,203.26524 c 0,0 3.21114,-10.14961 7.39644,-12.566 0.2386,0 -6.20346,16.38351 -3.81752,17.97414"
       style="fill:#ffffff;fill-opacity:1;fill-rule:evenodd;stroke:none;stroke-width:1px;stroke-linecap:butt;stroke-linejoin:miter;stroke-opacity:1" />
    <path
       style="fill:#ffffff;fill-opacity:1;fill-rule:evenodd;stroke:none;stroke-width:1px;stroke-linecap:butt;stroke-linejoin:miter;stroke-opacity:1"
       d="m 433.48911,203.26524 c 0,0 -3.21114,-10.14961 -7.39644,-12.566 -0.2386,0 6.20346,16.38351 3.81752,17.97414"
       id="path4386"
       inkscape:connector-curvature="0" />
    <circle
       r="24.336672"
       cy="188.83031"
       cx="414.15646"
       id="circle4380"
       style="fill:none;fill-opacity:1;stroke:#006c66;stroke-width:5;stroke-linecap:round;stroke-linejoin:round;stroke-miterlimit:4;stroke-dasharray:none;stroke-dashoffset:0;stroke-opacity:1" />
    <path
       sodipodi:type="star"
       style="fill:none;fill-opacity:1;stroke:#006c66;stroke-width:5;stroke-linecap:round;stroke-linejoin:round;stroke-miterlimit:4;stroke-dasharray:none;stroke-dashoffset:0;stroke-opacity:1"
       id="path4390"
       sodipodi:sides="5"
       sodipodi:cx="358.15188"
       sodipodi:cy="121.60368"
       sodipodi:r1="2.2607131"
       sodipodi:r2="1.8289552"
       sodipodi:arg1="0"
       sodipodi:arg2="0.62831853"
       inkscape:flatsided="true"
       inkscape:rounded="0"
       inkscape:randomized="0"
       d="m 360.4126,121.60368 -1.56212,2.15007 -2.52755,-0.82125 0,-2.65763 2.52755,-0.82125 z"
       inkscape:transform-center-x="-0.21586271" />
    <path
       inkscape:transform-center-x="-0.21586271"
       d="m 360.4126,107.65682 -1.56212,2.15007 -2.52755,-0.82125 0,-2.65763 2.52755,-0.82125 z"
       inkscape:randomized="0"
       inkscape:rounded="0"
       inkscape:flatsided="true"
       sodipodi:arg2="0.62831853"
       sodipodi:arg1="0"
       sodipodi:r2="1.8289552"
       sodipodi:r1="2.2607131"
       sodipodi:cy="107.65682"
       sodipodi:cx="358.15189"
       sodipodi:sides="5"
       id="path4392"
       style="fill:none;fill-opacity:1;stroke:#006c66;stroke-width:5;stroke-linecap:round;stroke-linejoin:round;stroke-miterlimit:4;stroke-dasharray:none;stroke-dashoffset:0;stroke-opacity:1"
       sodipodi:type="star" />
    <path
       sodipodi:type="star"
       style="fill:none;fill-opacity:1;stroke:#006c66;stroke-width:5;stroke-linecap:round;stroke-linejoin:round;stroke-miterlimit:4;stroke-dasharray:none;stroke-dashoffset:0;stroke-opacity:1"
       id="path4394"
       sodipodi:sides="5"
       sodipodi:cx="470.40162"
       sodipodi:cy="107.65682"
       sodipodi:r1="2.2607131"
       sodipodi:r2="1.8289552"
       sodipodi:arg1="0"
       sodipodi:arg2="0.62831853"
       inkscape:flatsided="true"
       inkscape:rounded="0"
       inkscape:randomized="0"
       d="m 472.66232,107.65682 -1.56211,2.15007 -2.52755,-0.82125 0,-2.65763 2.52755,-0.82125 z"
       inkscape:transform-center-x="-0.21586271" />
    <path
       inkscape:transform-center-x="-0.21586271"
       d="m 472.66232,126.32762 -1.56211,2.15007 -2.52755,-0.82125 0,-2.65763 2.52755,-0.82125 z"
       inkscape:randomized="0"
       inkscape:rounded="0"
       inkscape:flatsided="true"
       sodipodi:arg2="0.62831853"
       sodipodi:arg1="0"
       sodipodi:r2="1.8289552"
       sodipodi:r1="2.2607131"
       sodipodi:cy="126.32762"
       sodipodi:cx="470.40161"
       sodipodi:sides="5"
       id="path4396"
       style="fill:none;fill-opacity:1;stroke:#006c66;stroke-width:5;stroke-linecap:round;stroke-linejoin:round;stroke-miterlimit:4;stroke-dasharray:none;stroke-dashoffset:0;stroke-opacity:1"
       sodipodi:type="star" />
    <path
       sodipodi:type="star"
       style="fill:none;fill-opacity:1;stroke:#006c66;stroke-width:11.43447208;stroke-linecap:round;stroke-linejoin:round;stroke-miterlimit:4;stroke-dasharray:none;stroke-dashoffset:0;stroke-opacity:1"
       id="path4398"
       sodipodi:sides="5"
       sodipodi:cx="382.16866"
       sodipodi:cy="85.476415"
       sodipodi:r1="5.170012"
       sodipodi:r2="4.1826272"
       sodipodi:arg1="0"
       sodipodi:arg2="0.62831853"
       inkscape:flatsided="true"
       inkscape:rounded="0"
       inkscape:randomized="0"
       d="m 387.33868,85.476418 -3.57239,4.916973 -5.78025,-1.878117 0,-6.077713 5.78025,-1.878117 z"
       inkscape:transform-center-x="-0.49366995" />
    <path
       inkscape:transform-center-x="-0.49366995"
       d="m 449.19977,85.476418 -3.57239,4.916973 -5.78025,-1.878117 0,-6.077713 5.78025,-1.878117 z"
       inkscape:randomized="0"
       inkscape:rounded="0"
       inkscape:flatsided="true"
       sodipodi:arg2="0.62831853"
       sodipodi:arg1="0"
       sodipodi:r2="4.1826272"
       sodipodi:r1="5.170012"
       sodipodi:cy="85.476418"
       sodipodi:cx="444.02975"
       sodipodi:sides="5"
       id="path4400"
       style="fill:none;fill-opacity:1;stroke:#006c66;stroke-width:11.43447208;stroke-linecap:round;stroke-linejoin:round;stroke-miterlimit:4;stroke-dasharray:none;stroke-dashoffset:0;stroke-opacity:1"
       sodipodi:type="star" />
    <path
       sodipodi:type="star"
       style="fill:none;fill-opacity:1;stroke:#006c66;stroke-width:11.43447208;stroke-linecap:round;stroke-linejoin:round;stroke-miterlimit:4;stroke-dasharray:none;stroke-dashoffset:0;stroke-opacity:1"
       id="path4402"
       sodipodi:sides="5"
       sodipodi:cx="415.46119"
       sodipodi:cy="61.181886"
       sodipodi:r1="5.170012"
       sodipodi:r2="4.1826272"
       sodipodi:arg1="0"
       sodipodi:arg2="0.62831853"
       inkscape:flatsided="true"
       inkscape:rounded="0"
       inkscape:randomized="0"
       d="m 420.63119,61.181885 -3.57239,4.916973 -5.78025,-1.878116 0,-6.077714 5.78025,-1.878117 z"
       inkscape:transform-center-x="-0.49366995" />
  </g>
  <g
     inkscape:groupmode="layer"
     id="layer2"
     inkscape:label="Tomahawk"
     style="display:inline"
     transform="translate(-166.49505,-5.5909912)" />
  <g
     inkscape:groupmode="layer"
     id="layer4"
     inkscape:label="Head"
     style="display:inline"
     transform="translate(-166.49505,-5.5909912)" />
  <g
     inkscape:groupmode="layer"
     id="layer5"
     inkscape:label="Hand"
     transform="translate(-166.49505,-5.5909912)">
    <path
       style="fill:#008066;fill-opacity:1;fill-rule:evenodd;stroke:none;stroke-width:1px;stroke-linecap:butt;stroke-linejoin:miter;stroke-opacity:1"
       d="m 242.54425,273.09901 c 0,0 -17.29877,3.26978 -21.97304,-2.50162 -4.67438,-5.77114 0.42598,-6.68415 -1.48079,-9.19041 -1.90717,-2.5061 -8.61264,-2.77454 -9.51762,-6.74983 -0.90496,-3.97544 -1.61525,-5.83765 0.44731,-6.84179 2.06277,-1.00385 5.98163,-0.31159 6.8104,-4.0516 0.82901,-3.73996 1.5738,-3.31799 5.28496,-3.45611 3.71073,-0.13843 7.43499,-1.55948 7.7561,-3.92313 0.32093,-2.36424 3.94045,0.53493 4.13515,2.64824 0.1947,2.11315 5.53636,10.06192 8.03324,16.50077 2.49708,6.43869 0.90543,16.97776 0.5045,17.56542 z"
       id="path5092"
       inkscape:connector-curvature="0" />
    <path
       inkscape:connector-curvature="0"
       id="path5120"
       d="m 204.86618,295.63917 c 0,0 14.2313,-10.36358 13.22829,-17.72234 -1.00316,-7.35865 -5.16163,-4.26812 -5.68124,-7.37416 -0.51936,-3.10625 3.87816,-8.1754 1.60156,-11.55784 -2.27633,-3.38248 -3.14665,-5.17553 -5.291,-4.36061 -2.14421,0.81545 -4.32437,4.14459 -7.61671,2.18663 -3.29274,-1.95779 -3.49554,-1.1258 -6.13806,1.48346 -2.64255,2.60877 -6.22871,4.34914 -8.17095,2.96364 -1.94263,-1.38506 -2.30913,3.23746 -0.90305,4.82672 1.40661,1.58897 3.53845,10.92584 6.51936,17.15545 2.98102,6.22944 11.74955,12.2887 12.45176,12.39959 z"
       style="fill:#008066;fill-opacity:1;fill-rule:evenodd;stroke:none;stroke-width:1px;stroke-linecap:butt;stroke-linejoin:miter;stroke-opacity:1" />
  </g>
</svg>
